<svg width="256" height="256" xmlns="http://www.w3.org/2000/svg" data-name="Layer 1">
 <g>
  <title>Layer 1</title>
  <circle class="cls-2" cx="128" cy="128" r="128" fill="#7ac74c" id="svg_1"/>
  <path class="cls-1" d="m194.3,86.12c2.2,-2.13 1.76,4.2 1.52,6.15c-4.07,32.61 -8.97,65.08 -16.15,97.16c-1.92,8.61 -3.33,9.71 -12.1,9.84c-9.68,0.14 -19.35,0.06 -28.95,0.04c-1.7,0 -2.85,-1.73 -2.2,-3.3c15.94,-38.11 37.34,-90.03 57.88,-109.89z" fill="#000000" id="svg_2"/>
  <path class="cls-1" d="m121.47,180.64c-0.83,-23.74 2.05,-37.16 5.01,-68.66c0.12,-1.32 0.59,-2.57 1.15,-3.77c3.53,-7.48 17.34,-36.24 25.36,-46.17c1.68,-2.08 5.01,-0.95 5.18,1.71c0.11,1.78 0.04,3.44 -0.03,5.22c-0.89,20.31 -3.29,40.49 -6.19,60.6c-0.56,3.86 -2.22,7.68 -3.97,11.23c-5.73,11.62 1.08,-2.28 -17.76,34.57c-1.19,2.34 -2.12,5.3 -4.33,6.98c-1.8,1.37 -4.34,0.55 -4.42,-1.7l0,-0.01z" fill="#000000" id="svg_3"/>
  <path class="cls-1" d="m116.82,86.12c2.2,-2.13 1.76,4.2 1.52,6.15c-4.07,32.61 -8.97,65.08 -16.15,97.16c-1.92,8.61 -3.33,9.71 -12.1,9.84c-9.68,0.14 -19.35,0.06 -28.95,0.04c-1.7,0 -2.85,-1.73 -2.2,-3.3c15.94,-38.11 37.34,-90.03 57.88,-109.89z" fill="#000000" id="svg_4"/>
 </g>

</svg>